<svg width="26" height="26" viewBox="0 0 26 26" fill="none" xmlns="http://www.w3.org/2000/svg">
<path d="M12.1062 2.01023C12.4753 1.27497 13.5247 1.27497 13.8938 2.01023L16.3915 6.98715C16.8281 7.85696 17.6594 8.46098 18.6216 8.60736L24.1268 9.44494C24.9401 9.56868 25.2644 10.5668 24.6791 11.145L20.7177 15.0585C20.0253 15.7424 19.7078 16.7197 19.8659 17.68L20.7705 23.1746C20.9041 23.9863 20.0551 24.6032 19.3243 24.2253L14.3782 21.667C13.5138 21.2199 12.4862 21.2199 11.6218 21.667L6.67566 24.2253C5.94494 24.6032 5.09588 23.9863 5.22953 23.1746L6.13414 17.68C6.29223 16.7197 5.97469 15.7424 5.28234 15.0585L1.32087 11.145C0.735619 10.5668 1.05993 9.56868 1.87324 9.44494L7.37843 8.60736C8.34057 8.46098 9.17192 7.85697 9.60846 6.98715L12.1062 2.01023Z" stroke="#303030" stroke-width="2"/>
</svg>
